# xmcd CD database file
#
# Track frame offsets:
#	150
#	25725
#	49807
#	73587
#	97430
#	122105
#	143462
#	161125
#	176582
#	211867
#	232307
#	257485
#	280750
#	307095
#
# Disc length: 4192 seconds
#
# Revision: 0
# Processed by: cddbd v1.5.2PL0 Copyright (c) Steve Scherf et al.
# Submitted via: CDex 1.51
#
DISCID=d0105e0e
DTITLE=Buddy Guy - Heavy Love
DYEAR=1998
DGENRE=Blues
TTITLE0=Heavy Love
TTITLE1=Midnight Train
TTITLE2=I Got A Problem
TTITLE3=I Need You Tonight
TTITLE4=Saturday Night Fish Fry
TTITLE5=Had A Bad Night
TTITLE6=Are You Lonely For Me Baby
TTITLE7=I Just Want To Make Love To You
TTITLE8=Did Somebody Make A Fool Out Of You
TTITLE9=When The Time Is Right
TTITLE10=Let Me Show You
TTITLE11=Nobody Understands Me But My Guitar
TTITLE12=Your Mind Is On Vacation
TTITLE13=Data Track
EXTD=YEAR: 1998
EXTT0=
EXTT1=
EXTT2=
EXTT3=
EXTT4=
EXTT5=
EXTT6=
EXTT7=
EXTT8=
EXTT9=
EXTT10=
EXTT11=
EXTT12=
EXTT13=
PLAYORDER=
